<svg id="visual" viewBox="0 0 900 600" width="900" height="600" xmlns="http://www.w3.org/2000/svg" xmlns:xlink="http://www.w3.org/1999/xlink" version="1.1">
	<g>
		<g transform="translate(367 158)">
			<path d="M0 -62.8L54.4 -31.4L54.4 31.4L0 62.8L-54.4 31.4L-54.4 -31.4Z" fill="#1b8520">
			</path>
		</g>
		<g transform="translate(537 24)">
			<path d="M0 -54L46.8 -27L46.8 27L0 54L-46.8 27L-46.8 -27Z" fill="#1b8520">
			</path>
		</g>
		<g transform="translate(573 228)">
			<path d="M0 -50L43.3 -25L43.3 25L0 50L-43.3 25L-43.3 -25Z" fill="#1b8520">
			</path>
		</g>
		<g transform="translate(486 373)">
			<path d="M0 -45L39 -22.5L39 22.5L0 45L-39 22.5L-39 -22.5Z" fill="#1b8520">
			</path>
		</g>
		<g transform="translate(677 152)">
			<path d="M0 -43L37.2 -21.5L37.2 21.5L0 43L-37.2 21.5L-37.2 -21.5Z" fill="#1b8520">
			</path>
		</g>
		<g transform="translate(68 308)">
			<path d="M0 -46L39.8 -23L39.8 23L0 46L-39.8 23L-39.8 -23Z" fill="#1b8520">
			</path>
		</g>
		<g transform="translate(770 251)">
			<path d="M0 -53L45.9 -26.5L45.9 26.5L0 53L-45.9 26.5L-45.9 -26.5Z" fill="#1b8520">
			</path>
		</g>
		<g transform="translate(301 367)">
			<path d="M0 -60L52 -30L52 30L0 60L-52 30L-52 -30Z" fill="#1b8520">
			</path>
		</g>
		<g transform="translate(341 498)">
			<path d="M0 -57L49.4 -28.5L49.4 28.5L0 57L-49.4 28.5L-49.4 -28.5Z" fill="#1b8520">
			</path>
		</g>
		<g transform="translate(213 78)">
			<path d="M0 -58L50.2 -29L50.2 29L0 58L-50.2 29L-50.2 -29Z" fill="#1b8520">
			</path>
		</g>
		<g transform="translate(660 346)">
			<path d="M0 -59L51.1 -29.5L51.1 29.5L0 59L-51.1 29.5L-51.1 -29.5Z" fill="#1b8520">
			</path>
		</g>
		<g transform="translate(655 558)">
			<path d="M0 -50L43.3 -25L43.3 25L0 50L-43.3 25L-43.3 -25Z" fill="#1b8520">
			</path>
		</g>
		<g transform="translate(36 170)">
			<path d="M0 -43L37.2 -21.5L37.2 21.5L0 43L-37.2 21.5L-37.2 -21.5Z" fill="#1b8520">
			</path>
		</g>
		<g transform="translate(814 418)">
			<path d="M0 -61L52.8 -30.5L52.8 30.5L0 61L-52.8 30.5L-52.8 -30.5Z" fill="#1b8520">
			</path>
		</g>
		<g transform="translate(113 475)">
			<path d="M0 -49L42.4 -24.5L42.4 24.5L0 49L-42.4 24.5L-42.4 -24.5Z" fill="#1b8520">
			</path>
		</g>
		<g transform="translate(35 25)">
			<path d="M0 -47L40.7 -23.5L40.7 23.5L0 47L-40.7 23.5L-40.7 -23.5Z" fill="#1b8520">
			</path>
		</g>
		<g transform="translate(845 44)">
			<path d="M0 -54L46.8 -27L46.8 27L0 54L-46.8 27L-46.8 -27Z" fill="#1b8520">
			</path>
		</g>
		<g transform="translate(356 11)">
			<path d="M0 -59L51.1 -29.5L51.1 29.5L0 59L-51.1 29.5L-51.1 -29.5Z" fill="#1b8520">
			</path>
		</g>
		<g transform="translate(217 576)">
			<path d="M0 -58L50.2 -29L50.2 29L0 58L-50.2 29L-50.2 -29Z" fill="#1b8520">
			</path>
		</g>
		<g transform="translate(438 581)">
			<path d="M0 -53L45.9 -26.5L45.9 26.5L0 53L-45.9 26.5L-45.9 -26.5Z" fill="#1b8520">
			</path>
		</g>
		<g transform="translate(700 23)">
			<path d="M0 -48L41.6 -24L41.6 24L0 48L-41.6 24L-41.6 -24Z" fill="#1b8520">
			</path>
		</g>
		<g transform="translate(169 204)">
			<path d="M0 -49L42.4 -24.5L42.4 24.5L0 49L-42.4 24.5L-42.4 -24.5Z" fill="#1b8520">
			</path>
		</g>
		<g transform="translate(11 583)">
			<path d="M0 -42L36.4 -21L36.4 21L0 42L-36.4 21L-36.4 -21Z" fill="#1b8520">
			</path>
		</g>
		<g transform="translate(887 557)">
			<path d="M0 -48L41.6 -24L41.6 24L0 48L-41.6 24L-41.6 -24Z" fill="#1b8520">
			</path>
		</g>
	</g>
</svg>
